<svg xmlns="http://www.w3.org/2000/svg" x="0px" y="0px" width="100" height="100" viewBox="0,0,256,256">
<g fill="#ffffff" fill-rule="nonzero" stroke="none" stroke-width="1" stroke-linecap="butt" stroke-linejoin="miter" stroke-miterlimit="10" stroke-dasharray="" stroke-dashoffset="0" font-family="none" font-weight="none" font-size="none" text-anchor="none" style="mix-blend-mode: normal"><g transform="scale(5.12,5.12)"><path d="M25,0c-2.20703,0 -4,1.79297 -4,4c0,2.20703 1.79297,4 4,4c2.20703,0 4,-1.79297 4,-4c0,-2.20703 -1.79297,-4 -4,-4zM19.375,6.09375c-4.57031,1.95703 -7.375,6.36328 -7.375,11.90625c0,11 -3.80078,13.76172 -6.0625,15.40625c-1.00391,0.72656 -1.9375,1.40234 -1.9375,2.59375c0,4.20703 6.28125,6 21,6c14.71875,0 21,-1.79297 21,-6c0,-1.19141 -0.93359,-1.86719 -1.9375,-2.59375c-2.26172,-1.64453 -6.0625,-4.40625 -6.0625,-15.40625c0,-5.55859 -2.80078,-9.95312 -7.375,-11.90625c-0.85547,2.27344 -3.05859,3.90625 -5.625,3.90625c-2.56641,0 -4.76953,-1.63672 -5.625,-3.90625zM19,43.875c0,0.03906 0,0.08594 0,0.125c0,3.30859 2.69141,6 6,6c3.30859,0 6,-2.69141 6,-6c0,-0.03906 0,-0.08594 0,-0.125c-1.88281,0.07813 -3.88281,0.125 -6,0.125c-2.11719,0 -4.11719,-0.04687 -6,-0.125z"></path></g></g>
</svg>