<svg xmlns="http://www.w3.org/2000/svg" x="0px" y="0px" width="100" height="100" viewBox="0,0,256,256">
<g fill="#ffffff" fill-rule="nonzero" stroke="none" stroke-width="1" stroke-linecap="butt" stroke-linejoin="miter" stroke-miterlimit="10" stroke-dasharray="" stroke-dashoffset="0" font-family="none" font-weight="none" font-size="none" text-anchor="none" style="mix-blend-mode: normal"><g transform="scale(4,4)"><path d="M28.29102,6l-1.88477,5.75977c-2.85104,0.78633 -5.45841,2.15582 -7.68555,3.97656l1.33789,-2.9082l-2.35156,-1.2793c-0.779,-0.423 -1.74314,-0.28325 -2.36914,0.34375l-4.3457,4.34375l2.74609,5.41797c-1.40516,2.47478 -2.33305,5.25579 -2.63086,8.22656l-1.10742,-2.99414l-2.56641,0.75977c-0.85,0.251 -1.43359,1.03197 -1.43359,1.91797v6.14453l5.75977,1.88477c0.78633,2.85104 2.15582,5.45841 3.97656,7.68555l-2.9082,-1.33789l-1.2793,2.35156c-0.423,0.779 -0.28325,1.74314 0.34375,2.36914l4.34375,4.3457l5.41797,-2.74609c2.47478,1.40516 5.25579,2.33305 8.22656,2.63086l-2.99414,1.10742l0.75977,2.56641c0.251,0.85 1.03197,1.43359 1.91797,1.43359h6.14453l1.88477,-5.75977c2.85104,-0.78633 5.45841,-2.15582 7.68555,-3.97656l-1.33789,2.9082l2.35156,1.2793c0.779,0.423 1.74314,0.28325 2.36914,-0.34375l4.3457,-4.34375l-2.74609,-5.41797c1.40516,-2.47478 2.33305,-5.25579 2.63086,-8.22656l1.10742,2.99414l2.56641,-0.75977c0.85,-0.251 1.43359,-1.03197 1.43359,-1.91797v-6.14453l-5.75977,-1.88477c-0.78633,-2.85104 -2.15582,-5.45841 -3.97656,-7.68555l2.9082,1.33789l1.2793,-2.35156c0.423,-0.779 0.28325,-1.74314 -0.34375,-2.36914l-4.34375,-4.3457l-5.41797,2.74609c-2.47478,-1.40516 -5.25579,-2.33305 -8.22656,-2.63086l2.99414,-1.10742l-0.75977,-2.56641c-0.251,-0.85 -1.03197,-1.43359 -1.91797,-1.43359zM32,16c8.837,0 16,7.163 16,16c0,8.836 -7.163,16 -16,16c-8.837,0 -16,-7.164 -16,-16c0,-8.837 7.163,-16 16,-16zM32,20c-6.627,0 -12,5.373 -12,12c0,6.627 5.373,12 12,12c6.627,0 12,-5.373 12,-12c0,-6.627 -5.373,-12 -12,-12zM32,28c2.209,0 4,1.791 4,4c0,2.209 -1.791,4 -4,4c-2.209,0 -4,-1.791 -4,-4c0,-2.209 1.791,-4 4,-4z"></path></g></g>
</svg>